<?xml version="1.0" standalone="no"?>
<!DOCTYPE svg PUBLIC "-//W3C//DTD SVG 1.1//EN" "http://www.w3.org/Graphics/SVG/1.1/DTD/svg11.dtd" >
<svg xmlns="http://www.w3.org/2000/svg">
<metadata>
This is a custom SVG webfont generated by Font Squirrel.
</metadata>
<defs>
<font id="FranklinGothicDemiComp" horiz-adv-x="872" >
<font-face units-per-em="2048" ascent="1638" descent="-410" />
<missing-glyph horiz-adv-x="512" />
<glyph unicode=" " horiz-adv-x="512" d="M0 0z" />
<glyph unicode="!" horiz-adv-x="593" d="M141 1366h312l-66 -954h-176zM162 0v309h268v-309h-268z" />
<glyph unicode="&#x22;" horiz-adv-x="794" d="M90 1366h258l-45 -549h-170zM449 1366h256l-43 -549h-173z" />
<glyph unicode="#" horiz-adv-x="1228" d="M29 387l30 209h215l31 201h-211l31 209h213l57 360h236l-58 -360h203l58 360h237l-57 -360h209l-31 -209h-211l-31 -201h213l-33 -209h-212l-62 -387h-238l62 387h-203l-61 -387h-236l62 387h-213zM510 596h203l30 201h-202z" />
<glyph unicode="$" d="M37 360l221 74q23 -94 65 -134t121 -40q66 0 104 35t38 96q0 113 -125 162l-117 45q-145 57 -214 145t-69 224q0 162 82 260t230 116v140h127v-142q115 -23 184.5 -88t116.5 -198l-205 -94q-25 70 -51 106q-37 55 -119 55q-53 0 -85 -32.5t-32 -85.5q0 -59 38 -94.5 t155 -82.5q129 -53 172 -77.5t82 -69.5q82 -92 82 -244q0 -162 -82 -266q-84 -109 -256 -135v-180h-127v182q-133 10 -214 86.5t-122 236.5z" />
<glyph unicode="%" horiz-adv-x="1081" d="M47 1018q0 170 58.5 265t164.5 95q100 0 158.5 -95t58.5 -261t-58 -257t-161 -91q-104 0 -162.5 91t-58.5 253zM205 0l551 1366h125l-551 -1366h-125zM219 1024q0 -125 9.5 -164t39.5 -39q16 0 23 6q20 18 20 197q0 106 -6 162q-6 39 -31 43h-4q-33 0 -42 -39t-9 -166z M594 330q0 170 59.5 265t163.5 95q100 0 158.5 -95t58.5 -261q0 -164 -57 -256t-162 -92q-102 0 -161.5 91t-59.5 253zM766 336q0 -125 10 -165t41 -40q27 0 35 39t8 166q0 111 -8 162q-2 41 -31 41h-4q-31 0 -41 -39t-10 -164z" />
<glyph unicode="&#x26;" horiz-adv-x="1116" d="M68 383q0 262 247 393q-90 147 -90 285q0 145 87 235t227 90q145 0 230 -87t85 -238q0 -145 -82 -236q-47 -49 -129 -106q33 -57 78 -121q49 -74 92 -117q66 100 90 297l187 -30q-8 -227 -144 -443q57 -74 117 -74q10 0 29 7v-228q-53 -18 -107 -20q-113 0 -205 108 q-82 -61 -127 -80q-84 -39 -204 -38q-176 0 -278.5 108.5t-102.5 294.5zM322 391q0 -88 48 -138t130 -50q90 0 151 69q-61 70 -127 164q-55 80 -98 156q-104 -72 -104 -201zM457 1083q0 -78 78 -196q115 61 114 190q0 125 -92 125q-45 0 -72.5 -33t-27.5 -86z" />
<glyph unicode="'" horiz-adv-x="438" d="M90 1366h258l-45 -549h-170z" />
<glyph unicode="(" horiz-adv-x="522" d="M123 512q0 283 96 586q51 158 115 268h198q-55 -133 -92 -276q-78 -297 -78 -578q0 -289 78 -578q37 -150 92 -276h-198q-68 121 -115 268q-96 303 -96 586z" />
<glyph unicode=")" horiz-adv-x="522" d="M-10 -342q53 125 94 276q76 293 76 576q0 215 -34 398.5t-118 416.5l-14 41h199q207 -418 206 -854q0 -428 -206 -854h-203z" />
<glyph unicode="*" d="M133 1120l84 146l168 -127l-37 227h176l-37 -227l168 127l84 -146l-190 -100l188 -98l-82 -142l-168 125l37 -219h-176l37 219l-168 -125l-82 142l189 98z" />
<glyph unicode="+" horiz-adv-x="1024" d="M68 586v213h327v325h234v-325h327v-213h-327v-326h-234v326h-327z" />
<glyph unicode="," horiz-adv-x="452" d="M96 0v303h260v-272l-155 -353h-105l111 322h-111z" />
<glyph unicode="-" horiz-adv-x="356" d="M0 408v215h356v-215h-356z" />
<glyph unicode="." horiz-adv-x="452" d="M96 0v299h260v-299h-260z" />
<glyph unicode="/" horiz-adv-x="976" d="M12 -342l717 1708h168l-717 -1708h-168z" />
<glyph unicode="0" d="M45 686q0 358 94 529t293 171q203 0 299 -164.5t96 -512.5q0 -446 -137 -619q-39 -51 -111.5 -80.5t-152.5 -29.5q-199 0 -290 169.5t-91 536.5zM340 690q0 -213 6 -346q4 -82 23.5 -116.5t64.5 -34.5q82 0 90 143q8 145 8 383q0 203 -10 315q-8 76 -27.5 106.5 t-58.5 30.5q-55 0 -71 -49q-16 -43 -19 -104q-6 -162 -6 -328z" />
<glyph unicode="1" d="M106 0v242h216v788q-59 -70 -101 -106q-31 -27 -112 -76v266q59 37 118 88q84 74 160 176h219v-1136h197v-242h-697z" />
<glyph unicode="2" d="M53 0v266l43 43q176 182 262 293t125 209q41 100 41 207q0 131 -98 131q-121 0 -129 -262l-244 57q45 442 389 442q170 0 269.5 -103t99.5 -279q0 -145 -70 -283q-49 -92 -124.5 -183.5t-217.5 -226.5l-55 -53h477l-16 -258h-752z" />
<glyph unicode="3" d="M35 383l237 41q8 -109 39 -154t97 -45q129 0 129 181q0 80 -41 139q-23 31 -54.5 42t-95.5 11h-45v219h45q88 0 117 23q49 41 49 159q0 152 -100 152q-49 0 -76 -37t-41 -127l-232 51q68 348 371 348q166 0 258 -94t92 -264q0 -125 -39.5 -196.5t-132.5 -114.5 q205 -66 205 -324q0 -193 -104.5 -303t-286.5 -110q-176 0 -277.5 103t-113.5 300z" />
<glyph unicode="4" d="M33 328v231l405 819h260v-819h142v-231h-142v-328h-260v328h-405zM217 559h232v277q0 27 4 100q4 96 22 219q-4 -12 -9 -30.5t-8 -29t-5 -18.5q-37 -102 -70 -170z" />
<glyph unicode="5" d="M47 365l240 47q12 -102 41.5 -144.5t93.5 -42.5q70 0 99.5 50.5t29.5 167t-32 169t-103 52.5q-92 0 -119 -109l-197 45l39 766h627l-25 -262h-401l-16 -293q80 92 184 92q145 0 232 -120.5t87 -323.5q0 -227 -105.5 -353t-295.5 -126q-170 0 -269.5 101.5t-109.5 283.5z " />
<glyph unicode="6" d="M61 682q0 340 105.5 522t304.5 182q307 0 360 -344l-219 -67q-18 197 -135 196q-84 0 -114.5 -76.5t-32.5 -301.5l-2 -50q74 129 192 129q139 0 226.5 -119.5t87.5 -308.5q0 -217 -98.5 -340.5t-270.5 -123.5q-205 0 -304.5 173t-99.5 529zM338 422q0 -127 25.5 -178 t89.5 -51q57 0 81.5 49t24.5 168q0 137 -25.5 192t-89.5 55q-57 0 -81.5 -54t-24.5 -181z" />
<glyph unicode="7" d="M78 1108l20 258h697v-229q-68 -111 -97.5 -172.5t-72.5 -178.5q-57 -164 -78 -266q-41 -176 -41 -401q0 -61 4 -119h-299q-4 43 -4 90q0 145 47 340t119 346q76 168 211 332h-506z" />
<glyph unicode="8" d="M39 330q0 141 80 239q37 47 121 103q-164 117 -164 332q0 176 98 279t264 103q164 0 263.5 -91t99.5 -240q0 -197 -176 -301q209 -106 209 -371q0 -190 -110 -296.5t-304 -106.5q-180 0 -280.5 92t-100.5 258zM287 373q0 -88 36.5 -136.5t102.5 -48.5t101.5 44t35.5 122 q0 80 -39 129t-133 88q-57 -45 -80.5 -88.5t-23.5 -109.5zM338 1040q0 -145 129 -192q86 74 86 188q0 72 -27.5 113t-76.5 41q-51 0 -81 -41t-30 -109z" />
<glyph unicode="9" d="M39 926q0 215 99.5 337.5t273.5 122.5q399 0 399 -675q0 -731 -416 -731q-150 0 -232.5 81.5t-109.5 251.5l232 45q14 -86 41.5 -121.5t74.5 -35.5q78 0 114 89t36 283v64q-41 -63 -78 -90q-57 -41 -129 -41q-139 0 -222 113.5t-83 306.5zM299 946q0 -113 27.5 -164 t89.5 -51q125 0 125 221q0 213 -127 213q-115 0 -115 -219z" />
<glyph unicode=":" horiz-adv-x="452" d="M96 0v299h260v-299h-260zM96 709v301h260v-301h-260z" />
<glyph unicode=";" horiz-adv-x="452" d="M96 0v303h260v-272l-155 -353h-105l111 322h-111zM96 709v301h260v-301h-260z" />
<glyph unicode="&#x3c;" horiz-adv-x="1024" d="M68 584v196l888 441v-230l-643 -309l641 -311l2 -230z" />
<glyph unicode="=" horiz-adv-x="1024" d="M68 424v203h888v-203h-888zM68 768v203h888v-203h-888z" />
<glyph unicode="&#x3e;" horiz-adv-x="1024" d="M68 141v232l643 309l-641 311l-2 228l888 -443v-194z" />
<glyph unicode="?" d="M80 954v41q0 176 101.5 283.5t269.5 107.5q160 0 253 -102t93 -278q0 -119 -39 -207t-131 -178q-70 -70 -78 -119l-4 -39v-17l-2 -8v-47h-228v60q0 123 19.5 179t89.5 126q49 57 57 69q43 59 43 162q0 82 -23.5 119t-74.5 37q-59 0 -85 -41t-30 -144l-2 -43zM311 0v295 h250v-295h-250z" />
<glyph unicode="@" horiz-adv-x="1185" d="M55 678q0 324 159 527.5t409 203.5q229 0 367 -167t138 -447q0 -223 -86 -366.5t-219 -143.5q-63 0 -100 24.5t-64 81.5q-27 -59 -56.5 -84.5t-74.5 -25.5q-82 0 -126 78.5t-44 222.5q0 203 68 334t174 131q41 0 66.5 -21.5t48.5 -77.5l12 84h133l-57 -409 q-12 -90 -12 -123q0 -70 59 -70q57 0 89 91t32 253q0 233 -91.5 361.5t-256.5 128.5q-180 0 -289 -159t-109 -425q0 -270 114 -422t316 -152q51 0 117 11q63 12 137 45l43 -131q-29 -14 -39 -19q-113 -51 -266 -51q-268 0 -430 195.5t-162 521.5zM524 573q0 -113 43 -112 q39 0 58 49q39 106 39 250q0 109 -50 108h-4q-37 -4 -61.5 -89t-24.5 -206z" />
<glyph unicode="A" d="M-20 0l313 1366h291l309 -1366h-283l-55 295h-270l-54 -295h-251zM313 516h211l-75 365q-23 104 -29 229q-16 -131 -33 -217z" />
<glyph unicode="B" horiz-adv-x="976" d="M104 0v1366h371q119 0 156 -3t80 -20q86 -31 137 -119.5t51 -211.5q0 -121 -40 -190.5t-130 -108.5q209 -72 209 -344q0 -135 -64 -232q-51 -78 -127.5 -107.5t-222.5 -29.5h-420zM373 227h110q90 0 130 43t40 140q0 111 -55 159q-29 27 -123 27h-102v-369zM373 815h102 q80 0 116 37t36 119q0 176 -152 176h-102v-332z" />
<glyph unicode="C" horiz-adv-x="942" d="M61 684q0 340 115 521t330 181q174 0 274 -104q61 -61 91 -156.5t42 -265.5l-247 -22q-6 168 -41 236.5t-117 68.5q-86 0 -118 -102.5t-32 -378.5q0 -256 31 -347.5t117 -91.5q78 0 111.5 57.5t48.5 215.5l237 -19q-6 -123 -35 -219q-86 -279 -370 -278q-437 -1 -437 704 z" />
<glyph unicode="D" horiz-adv-x="1011" d="M104 0v1366h261q190 0 290 -37q295 -111 295 -633q0 -342 -121.5 -519t-357.5 -177h-367zM379 240h82q100 0 137 55q55 80 55 383q0 205 -30 328q-16 66 -54.5 94t-107.5 28h-82v-888z" />
<glyph unicode="E" horiz-adv-x="837" d="M104 0v1366h711v-240h-430v-317h330v-227h-330v-342h430v-240h-711z" />
<glyph unicode="F" horiz-adv-x="768" d="M104 0v1366h670v-240h-389v-354h299v-227h-299v-545h-281z" />
<glyph unicode="G" horiz-adv-x="976" d="M61 666q0 352 115 536t332 184q352 0 395 -464l-231 -41q-12 88 -27 143q-31 119 -137 119q-94 0 -126 -100.5t-32 -389.5q0 -242 36 -336t128 -94q78 0 113 64.5t35 206.5h-170v227h413v-721h-121l-32 164q-47 -102 -108.5 -143t-164.5 -41q-418 0 -418 686z" />
<glyph unicode="H" horiz-adv-x="976" d="M104 0v1366h281v-539h207v539h280v-1366h-280v588h-207v-588h-281z" />
<glyph unicode="I" horiz-adv-x="489" d="M104 0v1366h281v-1366h-281z" />
<glyph unicode="J" horiz-adv-x="628" d="M39 2v246q55 -8 98 -8q72 0 94.5 39.5t22.5 169.5v917h283v-899q0 -141 -6.5 -196.5t-28.5 -118.5q-63 -172 -297 -172q-86 -1 -166 22z" />
<glyph unicode="K" horiz-adv-x="942" d="M104 0v1366h281v-446l-2 -58l-4 -53l-4 -51q29 109 51 155l205 453h274l-276 -506l317 -860h-289l-192 616l-80 -182v-434h-281z" />
<glyph unicode="L" horiz-adv-x="733" d="M104 0v1366h281v-1114h346v-252h-627z" />
<glyph unicode="M" horiz-adv-x="1290" d="M104 0v1366h385l105 -575l22 -154q10 -80 19 -238q2 25 6 60t4 43q6 66 25 182q12 86 24 135l117 547h377v-1366h-268v776q0 78 10 301l4 113l-16 -113l-23 -157l-21 -129l-165 -791h-177l-159 803q-20 104 -41 284l-13 103l3 -109l4 -143l2 -129v-809h-224z" />
<glyph unicode="N" horiz-adv-x="976" d="M104 0v1366h275l221 -627q23 -70 55 -213l13 -57q-2 25 -5.5 59.5t-3.5 42.5q-10 154 -10 166q-4 135 -4 146v483h227v-1366h-227l-256 698q-10 27 -24 72q-16 53 -58 209q8 -94 8 -102q6 -66 11 -170q6 -92 6 -132v-575h-228z" />
<glyph unicode="O" horiz-adv-x="976" d="M61 700q0 348 106.5 517t326.5 169q215 0 318 -174t103 -538q0 -360 -104 -527t-330 -167q-213 0 -316.5 176.5t-103.5 543.5zM358 670q0 -147 15 -279q8 -88 35.5 -128t80.5 -40q59 0 86 43t33 144q8 131 8 286q0 264 -25.5 355.5t-101.5 91.5q-55 0 -86 -51 q-45 -84 -45 -422z" />
<glyph unicode="P" horiz-adv-x="907" d="M104 0v1366h342q102 0 140.5 -5t85.5 -24q98 -37 154.5 -144.5t56.5 -258.5q0 -195 -90 -311q-47 -55 -115 -86q-76 -33 -217 -33h-82v-504h-275zM379 743h67q82 0 114 46.5t32 162.5q0 102 -35 150.5t-111 48.5h-67v-408z" />
<glyph unicode="Q" horiz-adv-x="976" d="M61 694q0 352 105.5 522t325.5 170q217 0 320 -175t103 -543q0 -348 -116 -537q-25 -41 -82 -88q2 -49 21.5 -68.5t66.5 -19.5q37 0 82 8v-225q-59 -14 -117 -14q-131 0 -190.5 60t-63.5 196h-39q-121 0 -209 61q-109 76 -158 231.5t-49 421.5zM358 670q0 -147 15 -279 q8 -88 35.5 -128t80.5 -40q59 0 86 43t33 144q8 131 8 286q0 264 -25.5 355.5t-101.5 91.5q-55 0 -86 -51q-45 -84 -45 -422z" />
<glyph unicode="R" horiz-adv-x="942" d="M104 0v1366h351q174 0 247 -37q86 -41 135.5 -140t49.5 -228q0 -137 -41 -223.5t-137 -145.5l204 -592h-292l-156 537h-86v-537h-275zM379 762h76q152 0 151 199q0 190 -151 190h-76v-389z" />
<glyph unicode="S" horiz-adv-x="837" d="M2 348l223 78q25 -111 65 -156t113 -45q63 0 100.5 39t37.5 105q0 100 -113 155l-119 60q-260 125 -260 387q0 178 106.5 296.5t266.5 118.5q279 0 373 -315l-209 -92q-39 160 -156 160q-55 0 -86 -35t-31 -98q0 -53 29 -90t98 -68l115 -53q133 -63 197 -152 q63 -96 63 -231q0 -199 -111.5 -315.5t-300.5 -116.5q-335 -1 -401 368z" />
<glyph unicode="T" horiz-adv-x="733" d="M-2 1108v258h735v-258h-229v-1108h-283v1108h-223z" />
<glyph unicode="U" horiz-adv-x="976" d="M92 487v879h281v-868q0 -158 29.5 -213.5t117.5 -55.5q80 0 109 76q18 55 18 207v854h238v-854q0 -160 -17.5 -246t-62.5 -155q-86 -131 -320 -131q-213 0 -305 114q-88 112 -88 393z" />
<glyph unicode="V" horiz-adv-x="837" d="M-6 1366h291l110 -664q6 -39 19 -135q16 -117 18 -147q0 -8 3 -37t5 -49q4 45 6 65q14 174 37 303l119 664h242l-287 -1366h-285z" />
<glyph unicode="W" horiz-adv-x="1290" d="M0 1366h297l76 -647l12 -111q4 -57 14 -246q2 63 7 99q14 131 36 297l101 608h252l108 -639q10 -72 27 -262l8 -103q4 72 6 105q8 188 25 291l82 608h241l-248 -1366h-245l-117 670q-2 14 -6 41q-20 131 -27 266q-2 -20 -5 -47t-3 -33q-16 -158 -29 -227l-116 -670h-246z " />
<glyph unicode="X" d="M-10 0l303 715l-270 651h313l76 -240q6 -16 14 -49q16 -78 25 -180q14 139 51 250l78 219h268l-275 -631l310 -735h-303l-119 332q-33 94 -35 227q-14 -147 -43 -227l-129 -332h-264z" />
<glyph unicode="Y" horiz-adv-x="837" d="M-10 1366h293l120 -434q23 -76 25 -219q8 121 35 219l131 434h252l-303 -805v-561h-283v561z" />
<glyph unicode="Z" horiz-adv-x="837" d="M27 0v219l465 918h-429v229h736v-217l-465 -909h477v-240h-784z" />
<glyph unicode="[" horiz-adv-x="559" d="M164 -342v1708h364v-131h-131v-1458h131v-119h-364z" />
<glyph unicode="\" horiz-adv-x="1024" d="M55 1536h226l653 -1706h-225z" />
<glyph unicode="]" horiz-adv-x="559" d="M31 -223h131v1458h-131v131h362v-1708h-362v119z" />
<glyph unicode="^" horiz-adv-x="1024" d="M23 702l337 670h304l340 -670h-246l-246 486l-246 -486h-243z" />
<glyph unicode="_" horiz-adv-x="1024" d="M0 -106h1024v-209h-1024v209z" />
<glyph unicode="`" horiz-adv-x="1024" d="M262 1300l117 134l280 -267l-81 -90z" />
<glyph unicode="a" horiz-adv-x="768" d="M31 262q0 215 170 309q80 45 243 56q-4 98 -6 129q-8 84 -63 84q-39 0 -58.5 -34t-27.5 -116l-232 27q18 154 102.5 233.5t223.5 79.5q135 0 223 -69q53 -43 71.5 -111t18.5 -223v-408v-92q0 -70 13 -127h-232q-18 35 -18 96q0 16 2 27q-80 -143 -215 -143 q-100 0 -157.5 75.5t-57.5 206.5zM293 287q0 -125 65 -125q84 0 84 184l2 82v59q-82 -14 -116.5 -60t-34.5 -140z" />
<glyph unicode="b" horiz-adv-x="802" d="M78 0v1366h256v-455q61 111 162 111q127 0 195.5 -131t68.5 -375q0 -528 -277 -528q-147 0 -200 145l-68 -133h-137zM334 303q0 -131 69 -131q45 0 64 53q10 33 14 82q8 102 8 197q0 106 -12 221q-12 104 -69 104q-41 0 -57.5 -30.5t-16.5 -110.5v-385z" />
<glyph unicode="c" horiz-adv-x="768" d="M41 498q0 258 95 395t276 137q156 0 242.5 -99.5t90.5 -285.5l-235 -14l-2 31q-6 96 -27.5 137t-66.5 41q-53 0 -76 -56q-14 -37 -16 -77q-8 -111 -9 -201q0 -190 20.5 -257t78.5 -67q51 0 75.5 45t34.5 166l221 -16q-6 -104 -26 -174q-27 -104 -110 -163.5t-197 -59.5 q-369 0 -369 518z" />
<glyph unicode="d" horiz-adv-x="802" d="M41 494q0 250 71.5 389t200.5 139q90 0 156 -86v430h256v-1366h-231v147q-61 -160 -191 -159q-262 0 -262 506zM313 524q0 -117 3 -180t12.5 -105t25 -54.5t41.5 -12.5q41 0 57.5 44t16.5 155v346q0 113 -70 112q-47 0 -61 -43q-25 -53 -25 -262z" />
<glyph unicode="e" horiz-adv-x="768" d="M41 498q0 258 93 395t269 137q158 0 248 -117q55 -74 76 -171t21 -281h-443q-2 -16 -2 -37q0 -133 25.5 -187.5t87.5 -54.5q47 0 69.5 36t34.5 130l217 -18q-10 -168 -98 -259t-236 -91q-362 0 -362 518zM303 625h199q0 119 -21.5 170t-70.5 51q-53 0 -77 -50t-30 -171z " />
<glyph unicode="f" horiz-adv-x="489" d="M4 799v211h109v39q0 168 53 256q66 115 231 114q47 0 115 -12v-219q-49 6 -57 6q-47 0 -63.5 -26.5t-16.5 -106.5v-51h125v-211h-125v-799h-262v799h-109z" />
<glyph unicode="g" horiz-adv-x="837" d="M49 -123q0 96 57 154q23 23 80 51q-102 63 -102 162q0 145 135 223q-70 37 -101.5 96.5t-31.5 155.5q0 145 92 228t252 83q125 0 203 -45q0 197 158 197q25 0 65 -8v-183q-31 14 -51 15q-37 0 -57.5 -20.5t-36.5 -74.5q63 -82 63 -192q0 -145 -85 -231.5t-230 -86.5 q-45 0 -111 13q-51 -25 -51 -84q0 -39 29.5 -55.5t111.5 -22.5q176 -16 238 -35q80 -23 123 -88.5t43 -161.5q0 -154 -108.5 -235.5t-311.5 -83.5q-373 0 -373 229zM256 -59q0 -100 186 -101q160 0 160 94q0 45 -39 63.5t-139 25.5l-82 4l-49 4q-37 -43 -37 -90zM348 727 q0 -90 19.5 -129t64.5 -39q41 0 59.5 36t18.5 122q0 162 -78 162h-4q-80 -2 -80 -152z" />
<glyph unicode="h" horiz-adv-x="837" d="M78 0v1366h262v-487q33 82 79 116.5t124 34.5q88 0 147 -43q41 -33 58.5 -90t17.5 -168v-729h-262v700q0 68 -16.5 91.5t-63.5 23.5t-65.5 -26.5t-18.5 -98.5v-690h-262z" />
<glyph unicode="i" horiz-adv-x="417" d="M78 0v1010h262v-1010h-262zM78 1098v278h262v-278h-262z" />
<glyph unicode="j" horiz-adv-x="417" d="M-39 -143q18 -2 37 -2q49 0 64.5 28.5t15.5 120.5v1006h262v-977q0 -147 -7 -206.5t-34 -102.5q-49 -88 -229 -89q-51 0 -95 7l-14 2v213zM78 1098v278h262v-278h-262z" />
<glyph unicode="k" horiz-adv-x="802" d="M78 0v1366h262v-713l203 357h245l-235 -359l254 -651h-272l-138 438l-57 -96v-342h-262z" />
<glyph unicode="l" horiz-adv-x="417" d="M78 0v1366h262v-1366h-262z" />
<glyph unicode="m" horiz-adv-x="1220" d="M78 0v1010h235v-150q37 94 84 132t127 38q82 0 128 -36t79 -124q29 86 74 123t123 37q94 0 157 -53q66 -63 66 -266v-711h-256v711q0 59 -16.5 81.5t-59.5 22.5t-63 -35q-14 -35 -15 -116v-664h-256v694q0 61 -8 86q-16 35 -65 35q-45 0 -61.5 -28.5t-16.5 -104.5v-682 h-256z" />
<glyph unicode="n" horiz-adv-x="837" d="M78 0v1010h235v-148q41 94 91.5 131t134.5 37q92 0 149 -43q35 -25 49 -63q29 -59 29 -217v-707h-262v686q0 66 -8 90q-18 39 -74 39q-45 0 -63.5 -29.5t-18.5 -99.5v-686h-262z" />
<glyph unicode="o" horiz-adv-x="802" d="M41 512q0 250 94 384t271 134q172 0 263 -135t91 -391q0 -524 -363 -524q-176 0 -266 135t-90 397zM313 541q0 -178 9 -269q8 -111 79 -110q49 0 68 49q10 33 14 82q6 100 6 221q0 59 -8 219q-4 61 -21.5 87t-56.5 26h-4q-47 0 -63 -41q-23 -55 -23 -264z" />
<glyph unicode="p" horiz-adv-x="802" d="M78 -342v1352h227v-113q78 125 189 125q127 0 196.5 -131t69.5 -367q0 -260 -68.5 -398t-199.5 -138q-88 0 -158 82v-412h-256zM334 342q0 -100 14 -135t53 -35q51 0 69.5 71.5t18.5 264t-17 257t-69 64.5q-70 0 -69 -124v-363z" />
<glyph unicode="q" horiz-adv-x="802" d="M41 496q0 526 287 526q74 0 122 -34t93 -118l53 140h137q-8 -90 -8 -187v-1165h-256v414q-57 -84 -154 -84q-274 0 -274 508zM313 506q0 -203 15.5 -268.5t60.5 -65.5q41 0 58.5 35t19.5 119l2 96v291q0 117 -76 116q-51 0 -65.5 -59t-14.5 -264z" />
<glyph unicode="r" horiz-adv-x="593" d="M78 0v1010h235v-244q39 141 88.5 202.5t124.5 61.5q14 0 66 -8v-274q-18 2 -39 2q-111 0 -162 -68t-51 -213v-469h-262z" />
<glyph unicode="s" horiz-adv-x="733" d="M29 279l202 32q23 -131 134 -131q47 0 73.5 21.5t26.5 56.5q0 39 -23.5 64.5t-83.5 54.5l-63 31q-106 49 -162 102q-82 72 -82 205q0 139 91 227t235 88q121 0 191.5 -62.5t103.5 -199.5l-189 -47q-18 115 -112 115q-39 0 -61.5 -18.5t-22.5 -51.5q0 -66 123 -119l96 -45 q205 -92 205 -295q0 -152 -92.5 -239.5t-249.5 -87.5q-297 0 -340 299z" />
<glyph unicode="t" horiz-adv-x="559" d="M23 799v211h122l21 309l229 16v-325h158v-211h-158v-426q0 -96 20.5 -127t84.5 -31q23 0 65 6l-2 -209q-92 -27 -168 -26q-141 0 -209 80q-35 41 -45 97t-10 199v437h-108z" />
<glyph unicode="u" horiz-adv-x="837" d="M72 315v695h262v-695q0 -68 16.5 -94t61.5 -26q49 0 66.5 34.5t17.5 132.5v648h264v-1010h-236v141q-43 -88 -94 -124.5t-133 -36.5q-102 0 -162 53q-37 33 -50 93t-13 189z" />
<glyph unicode="v" horiz-adv-x="663" d="M-8 1010h262l72 -414q12 -66 22 -274q2 20 5 46.5t3 30.5q6 53 15 119q10 82 14 103l66 389h221l-232 -1010h-211z" />
<glyph unicode="w" horiz-adv-x="1046" d="M-8 1010h258l67 -385l11 -86l6 -86l6 -111q20 252 33 326l51 342h244l55 -359q16 -90 29 -309q4 57 6 84q16 156 30 242l54 342h213l-219 -1010h-203l-82 485q-2 12 -16 103q-6 47 -15 147q-10 -168 -20 -227l-80 -508h-209z" />
<glyph unicode="x" horiz-adv-x="698" d="M-25 0l250 518l-217 492h287l61 -168q18 -51 25 -160q10 94 33 160l59 168h232l-218 -465l234 -545h-291l-74 217q-25 68 -26 170q-12 -119 -33 -170l-90 -217h-232z" />
<glyph unicode="y" horiz-adv-x="663" d="M-6 1010h262l76 -365q6 -31 12 -80q12 -106 16 -221q0 18 3.5 48t3.5 40q18 182 39 293l55 285h213l-240 -965l-35 -125q-31 -109 -52 -148.5t-68 -72.5q-57 -43 -148 -43q-43 0 -98 14l-2 213q49 -14 75 -14q66 0 91.5 49t25.5 174z" />
<glyph unicode="z" horiz-adv-x="663" d="M51 0v199l293 620h-262v191h536v-168l-301 -637h314v-205h-580z" />
<glyph unicode="{" horiz-adv-x="524" d="M55 418v186h8q45 0 64.5 23.5t24.5 77.5l2 53v297q0 143 34 213q27 47 74 73q47 25 184 25h48v-154q-53 -2 -70 -10q-47 -18 -47 -147v-297q0 -133 -18.5 -174t-92.5 -72q74 -33 92.5 -74t18.5 -172v-299q0 -100 19.5 -126.5t97.5 -28.5v-154h-48q-127 0 -184 25 q-59 29 -83.5 91t-24.5 193v299l-2 53q-4 53 -23.5 76t-65.5 25z" />
<glyph unicode="|" horiz-adv-x="1024" d="M395 -512v2048h234v-2048h-234z" />
<glyph unicode="}" horiz-adv-x="524" d="M31 -188q76 2 95 27.5t19 127.5v299q0 131 18.5 172t94.5 74q-76 33 -94.5 74t-18.5 172v297q0 86 -16 119q-12 23 -30.5 29.5t-67.5 8.5v154h51q129 0 178 -25q59 -29 85 -94t26 -192v-297q0 -72 8 -105q16 -49 80 -49h10v-186h-10q-27 0 -45 -10q-27 -14 -35 -42 t-8 -100v-299q0 -141 -33 -213q-27 -47 -78 -71q-49 -25 -178 -25h-51v154z" />
<glyph unicode="~" horiz-adv-x="1366" d="M186 1245l15 33q49 102 86 145q74 92 200 93q68 0 218 -58q68 -29 92 -37q49 -16 92 -16q61 0 106 41q20 25 52 74l133 -78q-49 -104 -90 -152q-88 -109 -232 -108q-25 0 -35 2q-47 8 -159 49l-99 39q-49 18 -94 18q-68 0 -106 -51q-16 -18 -50 -78z" />
<glyph unicode="&#xa0;" horiz-adv-x="681" d="M0 0z" />
<glyph unicode="&#xa1;" horiz-adv-x="593" d="M141 -356l66 954h176l70 -954h-312zM164 700v310h266v-310h-266z" />
<glyph unicode="&#xa2;" d="M117 688q0 211 70.5 337t201.5 153v194h121v-188q92 -12 145 -56q125 -102 125 -280v-31l-235 -14q-2 57 -8 108q-12 84 -68 84q-41 0 -57 -45q-10 -31 -15 -71q-8 -98 -8 -183q0 -172 16.5 -234.5t61.5 -62.5q41 0 61.5 42t28.5 155l223 -18q-4 -338 -270 -377v-215 h-121v219q-98 20 -151 76q-121 120 -121 407z" />
<glyph unicode="&#xa3;" d="M25 0v225h57q49 0 70.5 9.5t40.5 37.5q47 72 47 215q0 63 -11 146h-123v196h101q-10 72 -10 127q0 199 92 314.5t250 115.5q223 0 282 -258l-180 -100q-16 76 -34.5 106.5t-51.5 30.5q-41 0 -65.5 -39t-24.5 -108q0 -25 8 -103l6 -47l2 -39h185v-196h-166v-21 q0 -154 -32 -239.5t-112 -147.5h125q88 0 127 29q61 47 82 166l205 -49q-2 -96 -41 -178q-33 -72 -90 -123q-47 -41 -101.5 -55.5t-160.5 -14.5h-477z" />
<glyph unicode="&#xa4;" horiz-adv-x="1366" d="M59 1253l127 127l209 -206q139 94 289 94q147 0 285 -92l205 204l126 -127l-204 -204q96 -143 96 -287q0 -141 -92 -283l207 -205l-127 -127l-205 205q-139 -96 -291 -96q-143 0 -291 94l-205 -203l-127 125l207 207q-94 131 -94 285q0 147 94 283zM385 762 q0 -123 87 -211t210 -88q125 0 212 88t87 211q0 125 -87 212t-210 87q-125 0 -212 -87t-87 -212z" />
<glyph unicode="&#xa5;" d="M31 1366h268l133 -434q23 -76 29 -195q12 127 33 195l141 434h217l-199 -532h160v-129h-207l-45 -119h252v-127h-254v-459h-244v459h-270v127h266l-43 119h-223v129h178z" />
<glyph unicode="&#xa7;" d="M82 -61l197 51q18 -84 56 -122t103 -38q57 0 88 35t31 98q0 111 -123 170l-100 51q-246 123 -246 348q0 180 137 283q-96 90 -96 238q0 150 88 241.5t234 91.5q127 0 211 -67q41 -33 62 -70t44 -114l-182 -66q-31 135 -119 135q-49 0 -77 -28.5t-28 -79.5q0 -98 113 -154 l103 -51q199 -102 198 -322q0 -90 -26.5 -149.5t-92.5 -112.5q135 -102 136 -295q0 -174 -94.5 -275.5t-256.5 -101.5q-156 0 -248 77t-112 227zM309 606q0 -68 51 -114q43 -37 154 -95q47 55 47 111q0 53 -45 100t-154 107q-53 -48 -53 -109z" />
<glyph unicode="&#xa8;" horiz-adv-x="1024" d="M268 1257q0 43 30 74t75 31q43 0 73.5 -31t30.5 -76q0 -43 -29.5 -73.5t-74.5 -30.5t-75 30.5t-30 75.5zM547 1255q0 45 30.5 76t73.5 31q45 0 75 -31t30 -76q0 -43 -30 -73.5t-75 -30.5t-74.5 30.5t-29.5 73.5z" />
<glyph unicode="&#xa9;" horiz-adv-x="1515" d="M55 682q0 291 206 497.5t497 206.5t497.5 -205.5t206.5 -498.5q0 -291 -206.5 -496.5t-497.5 -205.5t-497 205.5t-206 496.5zM190 682q0 -240 166 -410t401.5 -170t401.5 170t166 410q0 242 -166 411t-401.5 169t-401.5 -169t-166 -411zM485 682q0 205 73 313.5 t212 108.5q115 0 176 -62q70 -70 84 -254l-158 -12q-2 98 -25.5 140t-72.5 42q-57 0 -77.5 -60t-20.5 -228q0 -154 19.5 -208t74.5 -54q51 0 71.5 33.5t30.5 127.5l152 -10q-20 -299 -256 -299q-283 0 -283 422z" />
<glyph unicode="&#xaa;" horiz-adv-x="581" d="M90 961q0 119 96 167q49 23 140 29q-2 72 -9.5 93.5t-31.5 21.5q-41 0 -47 -80l-134 14q23 170 187 170q76 0 127 -39q31 -23 41 -58.5t10 -121.5v-219v-51q0 -43 8 -68h-133q-10 18 -10 53v15q-45 -80 -123 -80q-57 0 -89 41t-32 113zM96 608v68h379v-68h-379zM240 975 q0 -68 36 -68q29 0 39.5 31t10.5 123v20q-45 -6 -65.5 -30.5t-20.5 -75.5z" />
<glyph unicode="&#xab;" horiz-adv-x="768" d="M74 535l180 348h127l-102 -348l102 -351h-127zM387 535l182 348h125l-100 -348l100 -351h-125z" />
<glyph unicode="&#xac;" horiz-adv-x="1024" d="M68 338v209h888v-547h-233v338h-655z" />
<glyph unicode="&#xad;" horiz-adv-x="356" d="M0 408v215h356v-215h-356z" />
<glyph unicode="&#xae;" horiz-adv-x="1024" d="M102 1153q0 170 120 290t290 120t290 -120t120 -290t-121 -290t-289 -120t-289 120t-121 290zM156 1153q0 -147 104.5 -251.5t251.5 -104.5t251.5 104.5t104.5 251.5q0 150 -104.5 253t-251.5 103t-251.5 -104.5t-104.5 -251.5zM379 942v424h129q57 0 86 -12 q66 -29 65 -117q0 -80 -59 -113l72 -182h-109l-53 162h-27v-162h-104zM483 1184h25q51 0 51 53q0 51 -51 51h-25v-104z" />
<glyph unicode="&#xaf;" horiz-adv-x="1024" d="M295 1186v141h434v-141h-434z" />
<glyph unicode="&#xb0;" horiz-adv-x="1024" d="M203 1055q0 125 91 214t218 89t218 -89t91 -214t-91 -214t-218 -89t-218 89t-91 214zM344 1055q0 -68 49 -116t119 -48q70 -2 119 47t49 116.5t-49 116t-119 48.5t-119 -47t-49 -117z" />
<glyph unicode="&#xb1;" horiz-adv-x="1024" d="M68 113v215h888v-215h-888zM68 723v215h327v326h234v-326h327v-215h-327v-324h-234v324h-327z" />
<glyph unicode="&#xb2;" d="M53 0v266l43 43q176 182 262 293t125 209q41 100 41 207q0 131 -98 131q-121 0 -129 -262l-244 57q45 442 389 442q170 0 269.5 -103t99.5 -279q0 -145 -70 -283q-49 -92 -124.5 -183.5t-217.5 -226.5l-55 -53h477l-16 -258h-752z" />
<glyph unicode="&#xb3;" d="M35 383l237 41q8 -109 39 -154t97 -45q129 0 129 181q0 80 -41 139q-23 31 -54.5 42t-95.5 11h-45v219h45q88 0 117 23q49 41 49 159q0 152 -100 152q-49 0 -76 -37t-41 -127l-232 51q68 348 371 348q166 0 258 -94t92 -264q0 -125 -39.5 -196.5t-132.5 -114.5 q205 -66 205 -324q0 -193 -104.5 -303t-286.5 -110q-176 0 -277.5 103t-113.5 300z" />
<glyph unicode="&#xb4;" horiz-adv-x="1024" d="M379 1167l280 267l117 -134l-317 -223z" />
<glyph unicode="&#xb5;" horiz-adv-x="1024" d="M66 -350v1333h231v-530q0 -133 37 -195q59 -96 180 -96q72 0 125 41q35 31 49 57q41 68 41 203v520h229v-983h-229v131q-33 -68 -67 -98q-66 -55 -152 -55.5t-148 51.5q-31 25 -65 82v-461h-231z" />
<glyph unicode="&#xb6;" d="M6 952q0 195 98 312q45 51 111 73q74 29 231 29h345v-1708h-146v1544h-100v-1544h-146v870h-12q-381 0 -381 424z" />
<glyph unicode="&#xb7;" horiz-adv-x="313" d="M0 543v360h313v-360h-313z" />
<glyph unicode="&#xb8;" horiz-adv-x="1024" d="M358 -358l27 82q68 -33 117 -33q76 0 76 65q0 35 -26 55.5t-71 20.5q-18 0 -35 -2l-16 -2l55 172h80l-30 -98q16 2 34 2q68 0 109 -40t41 -106q0 -76 -52.5 -122t-138.5 -46q-94 1 -170 52z" />
<glyph unicode="&#xb9;" d="M106 0v242h216v788q-59 -70 -101 -106q-31 -27 -112 -76v266q59 37 118 88q84 74 160 176h219v-1136h197v-242h-697z" />
<glyph unicode="&#xba;" horiz-adv-x="581" d="M86 1094q0 137 53.5 209.5t153.5 72.5q98 0 150.5 -73.5t52.5 -212.5q0 -283 -205 -283t-205 287zM92 608v68h397v-68h-397zM242 1034q2 -82 12 -106q10 -20 37 -21q33 0 41 33t8 154q0 88 -4 120q-2 61 -43 62h-4q-31 -2 -39 -32t-8 -134v-76z" />
<glyph unicode="&#xbb;" horiz-adv-x="768" d="M74 184l100 346l-100 353h125l182 -353l-182 -346h-125zM387 184l102 346l-102 353h127l180 -353l-180 -346h-127z" />
<glyph unicode="&#xbc;" horiz-adv-x="2023" d="M1184 328v231l405 819h260v-819h142v-231h-142v-328h-260v328h-405zM1368 559h232v277q0 27 4 100q4 96 22 219q-4 -12 -9 -30.5t-8 -29t-5 -18.5q-37 -102 -70 -170zM659 0l551 1366h154l-551 -1366h-154zM106 0v242h216v788q-59 -70 -101 -106q-31 -27 -112 -76v266 q59 37 118 88q84 74 160 176h219v-1136h197v-242h-697z" />
<glyph unicode="&#xbd;" horiz-adv-x="2023" d="M1204 0v266l43 43q176 182 262 293t125 209q41 100 41 207q0 131 -98 131q-121 0 -129 -262l-244 57q45 442 389 442q170 0 269.5 -103t99.5 -279q0 -145 -70 -283q-49 -92 -124.5 -183.5t-217.5 -226.5l-55 -53h477l-16 -258h-752zM659 0l551 1366h154l-551 -1366h-154z M106 0v242h216v788q-59 -70 -101 -106q-31 -27 -112 -76v266q59 37 118 88q84 74 160 176h219v-1136h197v-242h-697z" />
<glyph unicode="&#xbe;" horiz-adv-x="2023" d="M1184 328v231l405 819h260v-819h142v-231h-142v-328h-260v328h-405zM1368 559h232v277q0 27 4 100q4 96 22 219q-4 -12 -9 -30.5t-8 -29t-5 -18.5q-37 -102 -70 -170zM659 0l551 1366h154l-551 -1366h-154zM35 383l237 41q8 -109 39 -154t97 -45q129 0 129 181 q0 80 -41 139q-23 31 -54.5 42t-95.5 11h-45v219h45q88 0 117 23q49 41 49 159q0 152 -100 152q-49 0 -76 -37t-41 -127l-232 51q68 348 371 348q166 0 258 -94t92 -264q0 -125 -39.5 -196.5t-132.5 -114.5q205 -66 205 -324q0 -193 -104.5 -303t-286.5 -110 q-176 0 -277.5 103t-113.5 300z" />
<glyph unicode="&#xbf;" d="M76 4q0 121 38 208t132 177q70 68 78 119q0 2 1 8t2 15.5t1 15.5t1 14t1 10v47h227v-59q0 -123 -19.5 -179t-88.5 -126q-33 -35 -60 -70q-41 -59 -41 -164q0 -154 98 -153q59 0 85 40t30 144l2 41l230 -37v-41q0 -176 -101.5 -283.5t-269.5 -107.5q-160 0 -253 102.5 t-93 278.5zM309 715v295h252v-295h-252z" />
<glyph unicode="&#xc0;" d="M-20 0l313 1366h291l309 -1366h-283l-55 295h-270l-54 -295h-251zM141 1591l84 172l367 -200l-60 -115zM313 516h211l-75 365q-23 104 -29 229q-16 -131 -33 -217z" />
<glyph unicode="&#xc1;" d="M-20 0l313 1366h291l309 -1366h-283l-55 295h-270l-54 -295h-251zM281 1563l368 200l84 -172l-393 -143zM313 516h211l-75 365q-23 104 -29 229q-16 -131 -33 -217z" />
<glyph unicode="&#xc2;" d="M-20 0l313 1366h291l309 -1366h-283l-55 295h-270l-54 -295h-251zM84 1448l354 313l350 -313h-190l-160 104l-164 -104h-190zM313 516h211l-75 365q-23 104 -29 229q-16 -131 -33 -217z" />
<glyph unicode="&#xc3;" d="M-20 0l313 1366h291l309 -1366h-283l-55 295h-270l-54 -295h-251zM152 1571q33 74 82 119t96 45q41 0 125 -49q84 -47 112 -48q23 0 40.5 17.5t41.5 64.5l80 -69q-80 -176 -188 -176q-51 0 -115 41l-76 45q-25 14 -45 14t-36.5 -14.5t-45.5 -55.5zM313 516h211l-75 365 q-23 104 -29 229q-16 -131 -33 -217z" />
<glyph unicode="&#xc4;" d="M-20 0l313 1366h291l309 -1366h-283l-55 295h-270l-54 -295h-251zM176 1606q0 47 34 79.5t81 32.5q45 0 78.5 -33.5t33.5 -78.5q0 -47 -32.5 -81t-79.5 -34q-49 0 -82 34t-33 81zM313 516h211l-75 365q-23 104 -29 229q-16 -131 -33 -217zM469 1606q0 47 34 79.5t81 32.5 t79.5 -32.5t32.5 -79.5t-32.5 -81t-79.5 -34t-81 34t-34 81z" />
<glyph unicode="&#xc5;" d="M-20 0l313 1366h291l309 -1366h-283l-55 295h-270l-54 -295h-251zM240 1640.5q0 81.5 57 138t139 56.5t139.5 -56.5t57.5 -138t-57.5 -139t-139.5 -57.5t-139 57.5t-57 139zM313 516h211l-75 365q-23 104 -29 229q-16 -131 -33 -217zM362 1640.5q0 -28.5 23 -50 t51.5 -21.5t51 21.5t22.5 47.5q0 31 -22.5 52.5t-51 21.5t-51.5 -21.5t-23 -50z" />
<glyph unicode="&#xc6;" horiz-adv-x="1290" d="M-16 0l442 1366h842v-240h-437v-317h338v-227h-338v-342h437v-240h-699v313h-250l-100 -313h-235zM389 537h180v434q0 106 13 260q-18 -84 -31 -133l-19 -74l-14 -53z" />
<glyph unicode="&#xc7;" horiz-adv-x="942" d="M61 684q0 340 115 521t330 181q174 0 274 -104q61 -61 91 -156.5t42 -265.5l-247 -22q-6 168 -41 236.5t-117 68.5q-86 0 -118 -102.5t-32 -378.5q0 -256 31 -347.5t117 -91.5q78 0 111.5 57.5t48.5 215.5l237 -19q-16 -254 -123 -379q-45 -55 -99 -80.5t-140 -35.5 l-25 -84q25 2 45 2q74 0 122 -47.5t48 -118.5q0 -84 -61.5 -137.5t-159.5 -53.5q-111 0 -193 60l31 92q78 -39 135 -39q35 0 56.5 20.5t21.5 55.5q0 39 -27.5 62.5t-74.5 23.5q-25 0 -62 -4l54 168q-92 12 -142.5 36.5t-97.5 77.5q-150 180 -150 588z" />
<glyph unicode="&#xc8;" horiz-adv-x="837" d="M104 0v1366h711v-240h-430v-317h330v-227h-330v-342h430v-240h-711zM123 1591l84 172l368 -200l-59 -115z" />
<glyph unicode="&#xc9;" horiz-adv-x="837" d="M104 0v1366h711v-240h-430v-317h330v-227h-330v-342h430v-240h-711zM303 1563l369 200l84 -172l-391 -143z" />
<glyph unicode="&#xca;" horiz-adv-x="837" d="M104 0v1366h711v-240h-430v-317h330v-227h-330v-342h430v-240h-711zM109 1448l354 313l348 -313h-190l-158 104l-164 -104h-190z" />
<glyph unicode="&#xcb;" horiz-adv-x="837" d="M104 0v1366h711v-240h-430v-317h330v-227h-330v-342h430v-240h-711zM201 1606q0 47 32.5 79.5t79.5 32.5t80 -32.5t33 -79.5t-33 -81t-80 -34t-79.5 34t-32.5 81zM494 1606q0 47 32.5 79.5t79.5 32.5t80 -32.5t33 -79.5t-33 -81t-80 -34t-79.5 34t-32.5 81z" />
<glyph unicode="&#xcc;" horiz-adv-x="489" d="M-51 1591l84 172l368 -200l-61 -115zM104 0v1366h281v-1366h-281z" />
<glyph unicode="&#xcd;" horiz-adv-x="489" d="M88 1563l369 200l84 -172l-394 -143zM104 0v1366h281v-1366h-281z" />
<glyph unicode="&#xce;" horiz-adv-x="489" d="M-12 1448l258 313l256 -313h-140l-116 133l-119 -133h-139zM104 0v1366h281v-1366h-281z" />
<glyph unicode="&#xcf;" horiz-adv-x="489" d="M-16 1606q0 47 33.5 79.5t80.5 32.5t80 -32.5t33 -79.5t-33 -81t-80 -34t-80.5 34t-33.5 81zM104 0v1366h281v-1366h-281zM279 1606q0 47 32.5 79.5t79.5 32.5t80 -32.5t33 -79.5t-33 -81t-80 -34t-79.5 34t-32.5 81z" />
<glyph unicode="&#xd1;" horiz-adv-x="976" d="M104 0v1366h275l221 -627q23 -70 55 -213l13 -57q-2 25 -5.5 59.5t-3.5 42.5q-10 154 -10 166q-4 135 -4 146v483h227v-1366h-227l-256 698q-10 27 -24 72q-16 53 -58 209q8 -94 8 -102q6 -66 11 -170q6 -92 6 -132v-575h-228zM205 1571q33 74 82 119t96 45q41 0 125 -49 q82 -47 113 -48q23 0 40 17.5t41 64.5l80 -69q-80 -176 -190 -176q-51 0 -115 41l-74 45q-25 14 -45 14t-37.5 -14.5t-46.5 -55.5z" />
<glyph unicode="&#xd2;" horiz-adv-x="976" d="M61 700q0 348 106.5 517t326.5 169q215 0 318 -174t103 -538q0 -360 -104 -527t-330 -167q-213 0 -316.5 176.5t-103.5 543.5zM193 1591l83 172l369 -200l-59 -115zM358 670q0 -147 15 -279q8 -88 35.5 -128t80.5 -40q59 0 86 43t33 144q8 131 8 286q0 264 -25.5 355.5 t-101.5 91.5q-55 0 -86 -51q-45 -84 -45 -422z" />
<glyph unicode="&#xd3;" horiz-adv-x="976" d="M61 700q0 348 106.5 517t326.5 169q215 0 318 -174t103 -538q0 -360 -104 -527t-330 -167q-213 0 -316.5 176.5t-103.5 543.5zM332 1563l368 200l84 -172l-391 -143zM358 670q0 -147 15 -279q8 -88 35.5 -128t80.5 -40q59 0 86 43t33 144q8 131 8 286q0 264 -25.5 355.5 t-101.5 91.5q-55 0 -86 -51q-45 -84 -45 -422z" />
<glyph unicode="&#xd4;" horiz-adv-x="976" d="M61 700q0 348 106.5 517t326.5 169q215 0 318 -174t103 -538q0 -360 -104 -527t-330 -167q-213 0 -316.5 176.5t-103.5 543.5zM137 1448l355 313l350 -313h-193l-157 104l-164 -104h-191zM358 670q0 -147 15 -279q8 -88 35.5 -128t80.5 -40q59 0 86 43t33 144 q8 131 8 286q0 264 -25.5 355.5t-101.5 91.5q-55 0 -86 -51q-45 -84 -45 -422z" />
<glyph unicode="&#xd5;" horiz-adv-x="976" d="M61 700q0 348 106.5 517t326.5 169q215 0 318 -174t103 -538q0 -360 -104 -527t-330 -167q-213 0 -316.5 176.5t-103.5 543.5zM205 1571q33 74 82 119t96 45q41 0 125 -49q82 -47 113 -48q23 0 40 17.5t41 64.5l80 -69q-80 -176 -190 -176q-51 0 -115 41l-74 45 q-25 14 -45 14t-37.5 -14.5t-46.5 -55.5zM358 670q0 -147 15 -279q8 -88 35.5 -128t80.5 -40q59 0 86 43t33 144q8 131 8 286q0 264 -25.5 355.5t-101.5 91.5q-55 0 -86 -51q-45 -84 -45 -422z" />
<glyph unicode="&#xd6;" horiz-adv-x="976" d="M61 700q0 348 106.5 517t326.5 169q215 0 318 -174t103 -538q0 -360 -104 -527t-330 -167q-213 0 -316.5 176.5t-103.5 543.5zM229 1606q0 47 33 79.5t80 32.5t80 -32.5t33 -79.5t-33 -81t-80 -34t-80 34t-33 81zM358 670q0 -147 15 -279q8 -88 35.5 -128t80.5 -40 q59 0 86 43t33 144q8 131 8 286q0 264 -25.5 355.5t-101.5 91.5q-55 0 -86 -51q-45 -84 -45 -422zM522 1606q0 47 33 79.5t80 32.5t81 -32.5t34 -79.5t-34 -81t-81 -34t-80 34t-33 81z" />
<glyph unicode="&#xd8;" horiz-adv-x="976" d="M61 686q0 358 104.5 529t323.5 171q98 0 189 -40l37 98h125l-68 -176q143 -176 143 -594q0 -360 -104 -527t-332 -167q-92 0 -178 38l-39 -102h-125l68 178q-144 180 -144 592zM334 684q0 -158 12 -264l238 696q-33 39 -95 39q-66 0 -102 -51q-25 -43 -31 -80 q-22 -104 -22 -340zM397 246q29 -35 96.5 -35t99.5 44t40 146q10 164 10 299q0 154 -10 246z" />
<glyph unicode="&#xd9;" horiz-adv-x="976" d="M92 487v879h281v-868q0 -158 29.5 -213.5t117.5 -55.5q80 0 109 76q18 55 18 207v854h238v-854q0 -160 -17.5 -246t-62.5 -155q-86 -131 -320 -131q-213 0 -305 114q-88 112 -88 393zM193 1591l83 172l369 -200l-59 -115z" />
<glyph unicode="&#xda;" horiz-adv-x="976" d="M92 487v879h281v-868q0 -158 29.5 -213.5t117.5 -55.5q80 0 109 76q18 55 18 207v854h238v-854q0 -160 -17.5 -246t-62.5 -155q-86 -131 -320 -131q-213 0 -305 114q-88 112 -88 393zM360 1563l369 200l82 -172l-391 -143z" />
<glyph unicode="&#xdb;" horiz-adv-x="976" d="M92 487v879h281v-868q0 -158 29.5 -213.5t117.5 -55.5q80 0 109 76q18 55 18 207v854h238v-854q0 -160 -17.5 -246t-62.5 -155q-86 -131 -320 -131q-213 0 -305 114q-88 112 -88 393zM150 1448l354 313l350 -313h-190l-160 104l-162 -104h-192z" />
<glyph unicode="&#xdc;" horiz-adv-x="976" d="M92 487v879h281v-868q0 -158 29.5 -213.5t117.5 -55.5q80 0 109 76q18 55 18 207v854h238v-854q0 -160 -17.5 -246t-62.5 -155q-86 -131 -320 -131q-213 0 -305 114q-88 112 -88 393zM242 1606q0 47 33.5 79.5t80.5 32.5t80 -32.5t33 -79.5t-33 -81t-80 -34t-80.5 34 t-33.5 81zM535 1606q0 47 33.5 79.5t80.5 32.5t80 -32.5t33 -79.5t-33 -81t-80 -34t-80.5 34t-33.5 81z" />
<glyph unicode="&#xdd;" horiz-adv-x="837" d="M338 1599l280 267l117 -134l-317 -223zM-10 1366h293l120 -434q23 -76 25 -219q8 121 35 219l131 434h252l-303 -805v-561h-283v561z" />
<glyph unicode="&#xdf;" horiz-adv-x="942" d="M-29 700v215h107v82q0 209 110.5 332t298.5 123q147 0 238.5 -91t91.5 -239q0 -229 -233 -286q2 -35 23.5 -58.5t97.5 -77.5q100 -72 137 -125q61 -84 61 -208q0 -180 -88 -283.5t-244 -103.5q-100 0 -176 40l56 193q53 -27 112 -27q94 0 94 138q0 66 -25.5 106.5 t-94.5 89.5q-33 20 -62 47q-76 63 -76 189q0 117 54 211q68 14 93 45.5t25 99.5q0 139 -114 139q-55 0 -82 -34q-23 -25 -33 -68q-10 -39 -10 -174v-1092h-254v817h-107z" />
<glyph unicode="&#xe0;" horiz-adv-x="768" d="M31 262q0 215 170 309q80 45 243 56q-4 98 -6 129q-8 84 -63 84q-39 0 -58.5 -34t-27.5 -116l-232 27q18 154 102.5 233.5t223.5 79.5q135 0 223 -69q53 -43 71.5 -111t18.5 -223v-408v-92q0 -70 13 -127h-232q-18 35 -18 96q0 16 2 27q-80 -143 -215 -143 q-100 0 -157.5 75.5t-57.5 206.5zM133 1300l117 134l280 -267l-81 -90zM293 287q0 -125 65 -125q84 0 84 184l2 82v59q-82 -14 -116.5 -60t-34.5 -140z" />
<glyph unicode="&#xe1;" horiz-adv-x="768" d="M31 262q0 215 170 309q80 45 243 56q-4 98 -6 129q-8 84 -63 84q-39 0 -58.5 -34t-27.5 -116l-232 27q18 154 102.5 233.5t223.5 79.5q135 0 223 -69q53 -43 71.5 -111t18.5 -223v-408v-92q0 -70 13 -127h-232q-18 35 -18 96q0 16 2 27q-80 -143 -215 -143 q-100 0 -157.5 75.5t-57.5 206.5zM250 1167l280 267l117 -134l-315 -223zM293 287q0 -125 65 -125q84 0 84 184l2 82v59q-82 -14 -116.5 -60t-34.5 -140z" />
<glyph unicode="&#xe2;" horiz-adv-x="768" d="M31 262q0 215 170 309q80 45 243 56q-4 98 -6 129q-8 84 -63 84q-39 0 -58.5 -34t-27.5 -116l-232 27q18 154 102.5 233.5t223.5 79.5q135 0 223 -69q53 -43 71.5 -111t18.5 -223v-408v-92q0 -70 13 -127h-232q-18 35 -18 96q0 16 2 27q-80 -143 -215 -143 q-100 0 -157.5 75.5t-57.5 206.5zM82 1108l305 295l299 -295h-176l-123 98l-129 -98h-176zM293 287q0 -125 65 -125q84 0 84 184l2 82v59q-82 -14 -116.5 -60t-34.5 -140z" />
<glyph unicode="&#xe3;" horiz-adv-x="768" d="M31 262q0 215 170 309q80 45 243 56q-4 98 -6 129q-8 84 -63 84q-39 0 -58.5 -34t-27.5 -116l-232 27q18 154 102.5 233.5t223.5 79.5q135 0 223 -69q53 -43 71.5 -111t18.5 -223v-408v-92q0 -70 13 -127h-232q-18 35 -18 96q0 16 2 27q-80 -143 -215 -143 q-100 0 -157.5 75.5t-57.5 206.5zM117 1229q35 61 65 92q49 49 101 49q37 0 114 -45q74 -41 107 -41q37 0 76 72l71 -60q-76 -156 -174 -155q-43 0 -106 35l-70 41q-18 12 -41 12q-35 0 -76 -62zM293 287q0 -125 65 -125q84 0 84 184l2 82v59q-82 -14 -116.5 -60t-34.5 -140 z" />
<glyph unicode="&#xe4;" horiz-adv-x="768" d="M31 262q0 215 170 309q80 45 243 56q-4 98 -6 129q-8 84 -63 84q-39 0 -58.5 -34t-27.5 -116l-232 27q18 154 102.5 233.5t223.5 79.5q135 0 223 -69q53 -43 71.5 -111t18.5 -223v-408v-92q0 -70 13 -127h-232q-18 35 -18 96q0 16 2 27q-80 -143 -215 -143 q-100 0 -157.5 75.5t-57.5 206.5zM139 1257q0 43 31 74t74 31q45 0 75.5 -31t30.5 -76q0 -43 -30.5 -73.5t-75.5 -30.5t-75 30.5t-30 75.5zM293 287q0 -125 65 -125q84 0 84 184l2 82v59q-82 -14 -116.5 -60t-34.5 -140zM418 1255q0 45 30.5 76t75.5 31q43 0 74 -31t31 -76 q0 -43 -31 -73.5t-74 -30.5q-45 0 -75.5 30.5t-30.5 73.5z" />
<glyph unicode="&#xe5;" horiz-adv-x="768" d="M31 262q0 215 170 309q80 45 243 56q-4 98 -6 129q-8 84 -63 84q-39 0 -58.5 -34t-27.5 -116l-232 27q18 154 102.5 233.5t223.5 79.5q135 0 223 -69q53 -43 71.5 -111t18.5 -223v-408v-92q0 -70 13 -127h-232q-18 35 -18 96q0 16 2 27q-80 -143 -215 -143 q-100 0 -157.5 75.5t-57.5 206.5zM186 1292q0 80 57.5 137.5t139.5 57.5t139.5 -57.5t57.5 -139.5t-57.5 -138t-139.5 -56t-139.5 57t-57.5 139zM293 287q0 -125 65 -125q84 0 84 184l2 82v59q-82 -14 -116.5 -60t-34.5 -140zM307 1290q0 -29 22.5 -51t53.5 -22t54.5 22.5 t23.5 50.5q0 31 -22.5 53.5t-55.5 22.5q-31 0 -53.5 -22.5t-22.5 -53.5z" />
<glyph unicode="&#xe6;" horiz-adv-x="1185" d="M31 262q0 215 174 309q84 45 248 56q0 43 -4 129q-8 84 -66 84q-78 0 -90 -150l-232 27q8 139 97.5 226t224.5 87q147 0 217 -115q63 70 109.5 92.5t121.5 22.5q150 0 238 -117q55 -72 75.5 -168t20.5 -284h-442q0 -166 29 -234q23 -47 84 -47q47 0 69.5 36t34.5 132 l217 -18q-12 -168 -99 -259t-237 -91q-96 0 -153.5 35.5t-102.5 123.5q-49 -78 -92 -106q-76 -53 -197 -53q-245 -1 -245 282zM293 289q0 -127 74 -127q45 0 64.5 42t21.5 142l2 82l-2 59q-86 -14 -123 -60t-37 -138zM721 625h201q-2 119 -23.5 170t-71.5 51 q-53 0 -76.5 -50t-29.5 -171z" />
<glyph unicode="&#xe7;" horiz-adv-x="768" d="M41 498q0 258 95 395t276 137q156 0 242.5 -99.5t90.5 -285.5l-235 -14l-2 31q-6 96 -27.5 137t-66.5 41q-53 0 -76 -56q-14 -37 -16 -77q-8 -111 -9 -201q0 -190 20.5 -257t78.5 -67q51 0 75.5 45t34.5 166l221 -16q-8 -125 -29.5 -189.5t-72.5 -117.5q-80 -80 -211 -90 l-22 -78q16 2 32 2q68 0 110 -40t42 -106q0 -76 -53.5 -122t-137.5 -46q-98 0 -170 52l27 82q68 -33 117 -33q74 0 74 65q0 76 -95 76q-20 0 -37 -2l-16 -2l49 156q-121 20 -182 82q-127 133 -127 432z" />
<glyph unicode="&#xe8;" horiz-adv-x="768" d="M41 498q0 258 93 395t269 137q158 0 248 -117q55 -74 76 -171t21 -281h-443q-2 -16 -2 -37q0 -133 25.5 -187.5t87.5 -54.5q47 0 69.5 36t34.5 130l217 -18q-10 -168 -98 -259t-236 -91q-362 0 -362 518zM133 1300l117 134l280 -267l-81 -90zM303 625h199 q0 119 -21.5 170t-70.5 51q-53 0 -77 -50t-30 -171z" />
<glyph unicode="&#xe9;" horiz-adv-x="768" d="M41 498q0 258 93 395t269 137q158 0 248 -117q55 -74 76 -171t21 -281h-443q-2 -16 -2 -37q0 -133 25.5 -187.5t87.5 -54.5q47 0 69.5 36t34.5 130l217 -18q-10 -168 -98 -259t-236 -91q-362 0 -362 518zM250 1167l280 267l117 -134l-315 -223zM303 625h199 q0 119 -21.5 170t-70.5 51q-53 0 -77 -50t-30 -171z" />
<glyph unicode="&#xea;" horiz-adv-x="768" d="M41 498q0 258 93 395t269 137q158 0 248 -117q55 -74 76 -171t21 -281h-443q-2 -16 -2 -37q0 -133 25.5 -187.5t87.5 -54.5q47 0 69.5 36t34.5 130l217 -18q-10 -168 -98 -259t-236 -91q-362 0 -362 518zM94 1108l305 295l301 -295h-178l-123 98l-127 -98h-178zM303 625 h199q0 119 -21.5 170t-70.5 51q-53 0 -77 -50t-30 -171z" />
<glyph unicode="&#xeb;" horiz-adv-x="768" d="M41 498q0 258 93 395t269 137q158 0 248 -117q55 -74 76 -171t21 -281h-443q-2 -16 -2 -37q0 -133 25.5 -187.5t87.5 -54.5q47 0 69.5 36t34.5 130l217 -18q-10 -168 -98 -259t-236 -91q-362 0 -362 518zM154 1257q0 43 29.5 74t74.5 31q43 0 73.5 -31t30.5 -76 q0 -43 -29.5 -73.5t-74.5 -30.5t-74.5 30.5t-29.5 75.5zM303 625h199q0 119 -21.5 170t-70.5 51q-53 0 -77 -50t-30 -171zM432 1255q0 45 31 76t74 31q45 0 74.5 -31t29.5 -76q0 -43 -29.5 -73.5t-74.5 -30.5t-75 30.5t-30 73.5z" />
<glyph unicode="&#xec;" horiz-adv-x="417" d="M-41 1300l117 134l280 -267l-82 -90zM78 0v1010h262v-1010h-262z" />
<glyph unicode="&#xed;" horiz-adv-x="417" d="M76 1167l280 267l117 -134l-315 -223zM78 0v1010h262v-1010h-262z" />
<glyph unicode="&#xee;" horiz-adv-x="417" d="M-35 1108l246 295l244 -295h-144l-100 113l-105 -113h-141zM78 0v1010h262v-1010h-262z" />
<glyph unicode="&#xef;" horiz-adv-x="417" d="M-10 1257q0 39 27.5 66t66.5 27t66.5 -28t27.5 -66.5t-27.5 -66.5t-66.5 -28q-41 0 -67.5 27.5t-26.5 68.5zM78 0v1010h262v-1010h-262zM240 1255.5q0 38.5 27.5 66.5t68.5 28q39 0 66.5 -28t27.5 -66.5t-27.5 -66.5t-66.5 -28q-41 0 -68.5 28t-27.5 66.5z" />
<glyph unicode="&#xf1;" horiz-adv-x="837" d="M78 0v1010h235v-148q41 94 91.5 131t134.5 37q92 0 149 -43q35 -25 49 -63q29 -59 29 -217v-707h-262v686q0 66 -8 90q-18 39 -74 39q-45 0 -63.5 -29.5t-18.5 -99.5v-686h-262zM152 1229q37 61 65 92q49 49 100 49q37 0 115 -45q76 -41 107 -41q37 0 75 72l72 -60 q-76 -156 -174 -155q-43 0 -106 35l-68 41q-23 12 -43 12q-35 0 -76 -62z" />
<glyph unicode="&#xf2;" horiz-adv-x="802" d="M41 512q0 250 94 384t271 134q172 0 263 -135t91 -391q0 -524 -363 -524q-176 0 -266 135t-90 397zM152 1300l116 134l281 -267l-82 -90zM313 541q0 -178 9 -269q8 -111 79 -110q49 0 68 49q10 33 14 82q6 100 6 221q0 59 -8 219q-4 61 -21.5 87t-56.5 26h-4 q-47 0 -63 -41q-23 -55 -23 -264z" />
<glyph unicode="&#xf3;" horiz-adv-x="802" d="M41 512q0 250 94 384t271 134q172 0 263 -135t91 -391q0 -524 -363 -524q-176 0 -266 135t-90 397zM268 1167l281 267l117 -134l-318 -223zM313 541q0 -178 9 -269q8 -111 79 -110q49 0 68 49q10 33 14 82q6 100 6 221q0 59 -8 219q-4 61 -21.5 87t-56.5 26h-4 q-47 0 -63 -41q-23 -55 -23 -264z" />
<glyph unicode="&#xf4;" horiz-adv-x="802" d="M41 512q0 250 94 384t271 134q172 0 263 -135t91 -391q0 -524 -363 -524q-176 0 -266 135t-90 397zM98 1108l305 295l302 -295h-179l-123 98l-129 -98h-176zM313 541q0 -178 9 -269q8 -111 79 -110q49 0 68 49q10 33 14 82q6 100 6 221q0 59 -8 219q-4 61 -21.5 87 t-56.5 26h-4q-47 0 -63 -41q-23 -55 -23 -264z" />
<glyph unicode="&#xf5;" horiz-adv-x="802" d="M41 512q0 250 94 384t271 134q172 0 263 -135t91 -391q0 -524 -363 -524q-176 0 -266 135t-90 397zM135 1229q33 59 64 92q49 49 102 49q37 0 115 -45q74 -41 104 -41q37 0 76 72l72 -60q-76 -156 -174 -155q-41 0 -105 35l-70 41q-20 12 -40 12q-37 0 -78 -62zM313 541 q0 -178 9 -269q8 -111 79 -110q49 0 68 49q10 33 14 82q6 100 6 221q0 59 -8 219q-4 61 -21.5 87t-56.5 26h-4q-47 0 -63 -41q-23 -55 -23 -264z" />
<glyph unicode="&#xf6;" horiz-adv-x="802" d="M41 512q0 250 94 384t271 134q172 0 263 -135t91 -391q0 -524 -363 -524q-176 0 -266 135t-90 397zM156 1257q0 43 30.5 74t75.5 31q43 0 74 -31t31 -76q0 -43 -31 -73.5t-74 -30.5q-45 0 -75.5 30.5t-30.5 75.5zM313 541q0 -178 9 -269q8 -111 79 -110q49 0 68 49 q10 33 14 82q6 100 6 221q0 59 -8 219q-4 61 -21.5 87t-56.5 26h-4q-47 0 -63 -41q-23 -55 -23 -264zM436 1255q0 45 31 76t74 31q45 0 74.5 -31t29.5 -76q0 -43 -29.5 -73.5t-74.5 -30.5t-75 30.5t-30 73.5z" />
<glyph unicode="&#xf7;" horiz-adv-x="1024" d="M68 586v213h888v-213h-888zM375 336q0 57 40 97t97 40t97 -40t40 -97t-40 -97t-97 -40t-97 40t-40 97zM375 1046.5q0 57.5 40 97.5t97 40t97 -40t40 -97.5t-40 -97.5t-97 -40t-97 40t-40 97.5z" />
<glyph unicode="&#xf8;" horiz-adv-x="802" d="M41 510q0 250 94 385t268 135q70 0 138 -24l43 108h112l-67 -170q131 -131 131 -438q0 -526 -359 -526q-78 0 -135 22l-47 -119h-113l70 176q-135 142 -135 451zM293 561q0 -119 2 -166q0 -39 2 -69l178 505q-29 27 -74 27q-59 0 -82 -43q-26 -53 -26 -254zM334 174 q25 -23 67 -22q61 0 84 49q14 41 17 86q8 90 8 231q0 31 -4 154z" />
<glyph unicode="&#xf9;" horiz-adv-x="837" d="M72 315v695h262v-695q0 -68 16.5 -94t61.5 -26q49 0 66.5 34.5t17.5 132.5v648h264v-1010h-236v141q-43 -88 -94 -124.5t-133 -36.5q-102 0 -162 53q-37 33 -50 93t-13 189zM168 1300l117 134l280 -267l-80 -90z" />
<glyph unicode="&#xfa;" horiz-adv-x="837" d="M72 315v695h262v-695q0 -68 16.5 -94t61.5 -26q49 0 66.5 34.5t17.5 132.5v648h264v-1010h-236v141q-43 -88 -94 -124.5t-133 -36.5q-102 0 -162 53q-37 33 -50 93t-13 189zM285 1167l280 267l117 -134l-315 -223z" />
<glyph unicode="&#xfb;" horiz-adv-x="837" d="M72 315v695h262v-695q0 -68 16.5 -94t61.5 -26q49 0 66.5 34.5t17.5 132.5v648h264v-1010h-236v141q-43 -88 -94 -124.5t-133 -36.5q-102 0 -162 53q-37 33 -50 93t-13 189zM117 1108l305 295l299 -295h-176l-123 98l-129 -98h-176z" />
<glyph unicode="&#xfc;" horiz-adv-x="837" d="M72 315v695h262v-695q0 -68 16.5 -94t61.5 -26q49 0 66.5 34.5t17.5 132.5v648h264v-1010h-236v141q-43 -88 -94 -124.5t-133 -36.5q-102 0 -162 53q-37 33 -50 93t-13 189zM174 1257q0 43 31 74t74 31q45 0 75.5 -31t30.5 -76q0 -43 -30.5 -73.5t-76 -30.5t-75 30.5 t-29.5 75.5zM453 1255q0 45 30.5 76t75.5 31q43 0 74 -31t31 -76q0 -43 -31 -73.5t-74 -30.5q-45 0 -75.5 30.5t-30.5 73.5z" />
<glyph unicode="&#xfd;" horiz-adv-x="663" d="M254 1243l280 267l117 -134l-317 -223zM-6 1010h262l76 -365q6 -31 12 -80q12 -106 16 -221q0 18 3.5 48t3.5 40q18 182 39 293l55 285h213l-240 -965l-35 -125q-31 -109 -52 -148.5t-68 -72.5q-57 -43 -148 -43q-43 0 -98 14l-2 213q49 -14 75 -14q66 0 91.5 49 t25.5 174z" />
<glyph unicode="&#xff;" horiz-adv-x="663" d="M-6 1010h262l76 -365q6 -31 12 -80q12 -106 16 -221q0 18 3.5 48t3.5 40q18 182 39 293l55 285h213l-240 -965l-35 -125q-31 -109 -52 -148.5t-68 -72.5q-57 -43 -148 -43q-43 0 -98 14l-2 213q49 -14 75 -14q66 0 91.5 49t25.5 174zM100 1257q0 43 31 74t74 31 q45 0 75.5 -31t30.5 -76q0 -43 -30.5 -73.5t-75.5 -30.5q-43 0 -74 30.5t-31 75.5zM379 1255q0 45 30.5 76t75.5 31q43 0 74 -31t31 -76q0 -43 -31 -73.5t-74 -30.5q-45 0 -75.5 30.5t-30.5 73.5z" />
<glyph unicode="&#x152;" horiz-adv-x="1394" d="M61 684q0 360 107.5 531t335.5 171q68 0 184 -12q98 -8 176 -8h510v-240h-428v-315h330v-227h-330v-344h428v-240h-555q-51 0 -82 -2q-8 0 -51 -4t-98 -8q-61 -6 -105 -6q-422 -1 -422 704zM358 662q0 -182 23 -302q14 -86 48 -122.5t99 -36.5q72 0 136 41v888 q-70 35 -132 35q-98 0 -136 -109t-38 -394z" />
<glyph unicode="&#x153;" horiz-adv-x="1220" d="M41 510q0 248 95 384t267 136q78 0 131.5 -29.5t110.5 -103.5q82 133 225 133q68 0 131.5 -31.5t102.5 -85.5q55 -72 75.5 -168t20.5 -284h-442q0 -166 28 -234q23 -47 86 -47q45 0 68 36t35 132l217 -18q-12 -164 -99 -257t-227 -93q-137 0 -243 108 q-55 -61 -104.5 -84.5t-123.5 -23.5q-170 0 -262 137t-92 393zM313 539q0 -178 9 -267q8 -111 84 -110q53 0 69 49q10 33 14 82q6 104 7 217q0 72 -9 223q-2 61 -20 87t-57 26h-4q-51 0 -68 -41q-25 -57 -25 -266zM756 625h200q-2 119 -23.5 170t-70.5 51q-51 0 -75.5 -51 t-30.5 -170z" />
<glyph unicode="&#x178;" horiz-adv-x="837" d="M-10 1366h293l120 -434q23 -76 25 -219q8 121 35 219l131 434h252l-303 -805v-561h-283v561zM172 1606q0 47 34 79.5t81 32.5t79.5 -32.5t32.5 -79.5t-32.5 -81t-79.5 -34t-81 34t-34 81zM465 1606q0 47 33.5 79.5t81 32.5t80 -32.5t32.5 -79.5t-32.5 -81t-80 -34t-81 34 t-33.5 81z" />
<glyph unicode="&#x2c6;" horiz-adv-x="1024" d="M209 1108l305 295l301 -295h-178l-123 98l-127 -98h-178z" />
<glyph unicode="&#x2dc;" horiz-adv-x="1024" d="M246 1229q33 59 63 92q49 49 103 49q37 0 114 -45q74 -41 105 -41q37 0 76 72l71 -60q-76 -156 -174 -155q-41 0 -104 35l-70 41q-20 12 -41 12q-35 0 -78 -62z" />
<glyph unicode="&#x3bc;" horiz-adv-x="1024" d="M66 -350v1333h231v-530q0 -133 37 -195q59 -96 180 -96q72 0 125 41q35 31 49 57q41 68 41 203v520h229v-983h-229v131q-33 -68 -67 -98q-66 -55 -152 -55.5t-148 51.5q-31 25 -65 82v-461h-231z" />
<glyph unicode="&#x2000;" horiz-adv-x="931" />
<glyph unicode="&#x2001;" horiz-adv-x="1865" />
<glyph unicode="&#x2002;" horiz-adv-x="931" />
<glyph unicode="&#x2003;" horiz-adv-x="1865" />
<glyph unicode="&#x2004;" horiz-adv-x="620" />
<glyph unicode="&#x2005;" horiz-adv-x="464" />
<glyph unicode="&#x2006;" horiz-adv-x="309" />
<glyph unicode="&#x2007;" horiz-adv-x="309" />
<glyph unicode="&#x2008;" horiz-adv-x="231" />
<glyph unicode="&#x2009;" horiz-adv-x="372" />
<glyph unicode="&#x200a;" horiz-adv-x="102" />
<glyph unicode="&#x2010;" horiz-adv-x="356" d="M0 408v215h356v-215h-356z" />
<glyph unicode="&#x2011;" horiz-adv-x="356" d="M0 408v215h356v-215h-356z" />
<glyph unicode="&#x2012;" horiz-adv-x="356" d="M0 408v215h356v-215h-356z" />
<glyph unicode="&#x2013;" horiz-adv-x="1024" d="M68 586v213h888v-213h-888z" />
<glyph unicode="&#x2014;" horiz-adv-x="1071" d="M0 408v215h1071v-215h-1071z" />
<glyph unicode="&#x2018;" horiz-adv-x="452" d="M104 795v301l125 270h121l-96 -270h96v-301h-246z" />
<glyph unicode="&#x2019;" horiz-adv-x="419" d="M86 795l96 270h-96v301h246v-301l-125 -270h-121z" />
<glyph unicode="&#x201a;" horiz-adv-x="419" d="M86 0v299h246v-299l-125 -270h-121l96 270h-96z" />
<glyph unicode="&#x201c;" horiz-adv-x="768" d="M86 795v301l127 270h119l-94 -270h94v-301h-246zM434 795v301l127 270h121l-96 -270h96v-301h-248z" />
<glyph unicode="&#x201d;" horiz-adv-x="768" d="M86 795l96 270h-96v301h246v-301l-125 -270h-121zM434 795l96 270h-96v301h248v-301l-127 -270h-121z" />
<glyph unicode="&#x201e;" horiz-adv-x="768" d="M86 0v299h246v-299l-125 -270h-121l96 270h-96zM434 0v299h248v-299l-127 -270h-121l96 270h-96z" />
<glyph unicode="&#x2022;" horiz-adv-x="1366" d="M401 696.5q0 118.5 83 202.5t200 84q115 0 198 -84t83 -202.5t-83 -202.5t-198 -84q-117 0 -200 84t-83 202.5z" />
<glyph unicode="&#x2026;" horiz-adv-x="1361" d="M96 0v299h260v-299h-260zM551 0v299h260v-299h-260zM1004 0v299h262v-299h-262z" />
<glyph unicode="&#x202f;" horiz-adv-x="372" />
<glyph unicode="&#x2039;" horiz-adv-x="454" d="M74 535l180 348h127l-102 -348l102 -351h-127z" />
<glyph unicode="&#x203a;" horiz-adv-x="454" d="M74 184l100 346l-100 353h125l182 -353l-182 -346h-125z" />
<glyph unicode="&#x2044;" horiz-adv-x="278" d="M-213 0l551 1366h154l-551 -1366h-154z" />
<glyph unicode="&#x205f;" horiz-adv-x="464" />
<glyph unicode="&#x2122;" horiz-adv-x="1292" d="M29 1210v156h450v-156h-135v-622h-182v622h-133zM535 588v778h241l64 -328q2 -12 18 -129q12 92 25 146l71 311h236v-778h-174v440q0 29 2 57q0 6 1 14.5t2 21t1 22.5q-10 -53 -12 -72q-2 -25 -6 -37l-99 -446h-117l-94 454l-6 33l-12 68q0 -6 1 -14.5t1 -13.5t1 -10 t1 -9q2 -25 2 -49v-459h-147z" />
<glyph unicode="&#xe000;" horiz-adv-x="1010" d="M0 1010h1010v-1010h-1010v1010z" />
<glyph unicode="&#xfb01;" horiz-adv-x="907" d="M4 799v211h109v39q0 168 53 256q66 115 231 114q47 0 115 -12v-219q-49 6 -57 6q-47 0 -63.5 -26.5t-16.5 -106.5v-51h125v-211h-125v-799h-262v799h-109zM567 0v1010h262v-1010h-262zM567 1098v278h262v-278h-262z" />
<glyph unicode="&#xfb02;" horiz-adv-x="907" d="M4 799v211h109v39q0 168 53 256q66 115 231 114q47 0 115 -12v-219q-49 6 -57 6q-47 0 -63.5 -26.5t-16.5 -106.5v-51h125v-211h-125v-799h-262v799h-109zM567 0v1366h262v-1366h-262z" />
<glyph unicode="&#xfb03;" horiz-adv-x="1396" d="M1057 0v1010h262v-1010h-262zM1057 1098v278h262v-278h-262zM493 799v211h109v39q0 168 53 256q66 115 231 114q47 0 115 -12v-219q-49 6 -57 6q-47 0 -63.5 -26.5t-16.5 -106.5v-51h125v-211h-125v-799h-262v799h-109zM4 799v211h109v39q0 168 53 256q66 115 231 114 q47 0 115 -12v-219q-49 6 -57 6q-47 0 -63.5 -26.5t-16.5 -106.5v-51h125v-211h-125v-799h-262v799h-109z" />
<glyph unicode="&#xfb04;" horiz-adv-x="1396" d="M1057 0v1366h262v-1366h-262zM493 799v211h109v39q0 168 53 256q66 115 231 114q47 0 115 -12v-219q-49 6 -57 6q-47 0 -63.5 -26.5t-16.5 -106.5v-51h125v-211h-125v-799h-262v799h-109zM4 799v211h109v39q0 168 53 256q66 115 231 114q47 0 115 -12v-219q-49 6 -57 6 q-47 0 -63.5 -26.5t-16.5 -106.5v-51h125v-211h-125v-799h-262v799h-109z" />
</font>
</defs>
</svg>
